<svg preserveAspectRatio="none" width="100%" height="100%" overflow="visible" style="display: block;" viewBox="0 0 644 93" fill="none" xmlns="http://www.w3.org/2000/svg">
<g id="logo-mailman-blue-horizontal 1" clip-path="url(#clip0_209_15)">
<path id="Vector" d="M378.191 93H380.031V0H378.191V93ZM427.069 41.3211C427.069 41.1799 426.916 41.1485 426.701 41.1485C426.395 41.1485 425.935 41.1328 425.275 40.9131C424.585 40.6934 424.355 40.0186 424.156 38.5277L422.071 24.121C421.994 23.6188 421.856 23.3834 421.657 23.3834C421.442 23.3834 421.335 23.5717 421.151 23.9484L414.896 37.1937L408.625 24.1053C408.334 23.4932 408.18 23.3677 408.012 23.3677C407.828 23.3677 407.69 23.5874 407.613 23.9797L405.344 39.1397C405.237 39.9401 405.053 40.8503 404.409 41.0073C404.056 41.07 403.903 41.07 403.719 41.07C403.489 41.07 403.351 41.1171 403.351 41.227C403.351 41.431 403.535 41.4938 403.765 41.4938C404.501 41.4938 405.604 41.431 406.034 41.431C406.448 41.431 407.475 41.4938 408.441 41.4938C408.794 41.4938 408.993 41.4467 408.993 41.227C408.993 41.1014 408.84 41.07 408.64 41.07C408.41 41.07 408.088 41.0386 407.674 40.9445C407.276 40.8503 406.984 40.6306 406.984 40.1912C406.984 39.8145 407.015 39.5164 407.046 39.0769L408.242 29.8962H408.334C409.146 31.6539 410.526 34.4474 410.725 34.9339C411.001 35.593 412.826 39.1868 413.378 40.2854C413.746 40.9916 413.976 41.4624 414.175 41.4624C414.39 41.4624 414.497 41.2427 415.034 40.1441L420.047 29.6451H420.139L421.519 39.893C421.611 40.5521 421.55 40.8503 421.412 40.8974C421.258 40.9602 421.151 41.0386 421.151 41.1642C421.151 41.3054 421.289 41.3682 421.826 41.431C422.746 41.4938 425.919 41.5565 426.487 41.5565C426.793 41.5879 427.069 41.5251 427.069 41.3211ZM443.689 41.1171C443.459 41.1171 443.229 41.0857 442.922 41.0543C442.554 40.9759 441.987 40.7248 441.205 38.9043C439.917 35.8598 436.544 27.7776 436.054 26.6633C435.854 26.2082 435.762 26.0199 435.456 26.0199C435.241 26.0199 435.088 26.2553 434.858 26.8203L429.568 39.3124C429.154 40.3324 428.802 40.9445 427.882 41.07C427.698 41.07 427.468 41.1014 427.284 41.1014C427.13 41.1014 427.054 41.1956 427.054 41.3054C427.054 41.4624 427.176 41.5095 427.422 41.5095C428.48 41.5095 429.568 41.4467 429.768 41.4467C430.411 41.4467 431.362 41.5095 432.021 41.5095C432.221 41.5095 432.343 41.4624 432.343 41.3054C432.343 41.1799 432.297 41.1014 432.037 41.1014H431.745C431.132 41.1014 430.948 40.8817 430.948 40.5364C430.948 40.301 431.04 39.8145 431.239 39.3124L432.328 36.6131C432.374 36.4875 432.389 36.4718 432.512 36.4718H437.265C437.357 36.4718 437.418 36.4875 437.464 36.6131L439.028 40.662C439.12 40.8974 438.982 41.0857 438.844 41.1171C438.645 41.1328 438.583 41.2113 438.583 41.3211C438.583 41.4624 438.813 41.4624 439.181 41.4781C440.883 41.5251 442.355 41.5251 443.06 41.5251C443.827 41.5251 443.934 41.4781 443.934 41.3211C443.965 41.1956 443.873 41.1171 443.689 41.1171ZM436.836 35.3733H432.926C432.865 35.3733 432.803 35.3262 432.865 35.232L434.812 30.2415C434.827 30.1787 434.858 30.0532 434.919 30.0532C434.965 30.0532 434.98 30.1787 435.011 30.2415L436.928 35.2477C436.958 35.3262 436.928 35.3733 436.836 35.3733ZM451.907 41.5408C452.137 41.5408 452.29 41.4781 452.29 41.3368C452.29 41.2427 452.198 41.1328 451.968 41.1328C451.661 41.1328 451.201 41.1014 450.925 41.07C450.328 40.9759 450.19 40.662 450.128 40.1284C450.036 39.281 450.036 37.6802 450.036 35.7499V32.2189C450.036 29.19 450.036 28.625 450.082 27.9816C450.128 27.2754 450.282 26.9929 450.833 26.8988C451.063 26.8517 451.232 26.836 451.431 26.836C451.646 26.836 451.753 26.7889 451.753 26.6006C451.753 26.475 451.6 26.4279 451.339 26.4279C450.558 26.4279 449.254 26.475 448.748 26.475C448.166 26.475 446.801 26.4279 446.035 26.4279C445.713 26.4279 445.559 26.475 445.559 26.6006C445.559 26.7889 445.682 26.836 445.881 26.836C446.142 26.836 446.387 26.8517 446.617 26.9301C447.062 27.0714 447.261 27.3068 447.307 27.9816C447.338 28.6093 447.338 29.1743 447.338 32.2189V35.7499C447.338 37.6802 447.338 39.281 447.246 40.1127C447.169 40.7091 447.062 40.9759 446.648 41.0857C446.464 41.1328 446.234 41.1485 445.943 41.1485C445.682 41.1485 445.621 41.2584 445.621 41.3525C445.621 41.4938 445.759 41.5565 446.004 41.5565C446.801 41.5565 448.181 41.4938 448.641 41.4938C449.193 41.4624 450.573 41.5408 451.907 41.5408ZM465.383 41.5879C466.441 41.5879 466.533 41.4938 466.671 41.0543C466.84 40.458 466.978 38.9828 466.978 38.7474C466.978 38.512 466.932 38.2923 466.794 38.2923C466.641 38.2923 466.595 38.4178 466.564 38.6061C466.518 38.9828 466.303 39.5478 466.058 39.7989C465.552 40.3481 464.77 40.3638 463.697 40.3638C462.133 40.3638 461.351 40.2383 461.014 39.9401C460.569 39.5635 460.569 38.2923 460.569 35.7185V32.1875C460.569 29.1586 460.569 28.5937 460.615 27.9502C460.661 27.244 460.815 26.9615 461.367 26.8674C461.597 26.8203 461.918 26.8046 462.148 26.8046C462.409 26.8046 462.516 26.7418 462.516 26.6006C462.516 26.4593 462.378 26.4123 462.087 26.4123C461.305 26.4123 459.649 26.4593 459.159 26.4593C458.607 26.4593 457.319 26.4123 456.384 26.4123C456.092 26.4123 455.954 26.4593 455.954 26.6006C455.954 26.7418 456.062 26.8046 456.307 26.8046C456.568 26.8046 456.813 26.8203 456.966 26.8674C457.61 27.0557 457.794 27.2597 457.84 27.9502C457.856 28.578 457.856 29.1429 457.856 32.1875V35.7185C457.856 37.5547 457.856 39.124 457.764 39.9715C457.687 40.5678 457.58 40.9445 457.166 41.0386C456.982 41.0857 456.752 41.1014 456.46 41.1014C456.2 41.1014 456.138 41.2113 456.138 41.3054C456.138 41.4467 456.276 41.5095 456.522 41.5095C456.936 41.5095 457.442 41.4938 457.932 41.4624C458.407 41.4624 458.852 41.4467 459.082 41.4467C459.91 41.4467 460.753 41.4624 461.765 41.4938C462.762 41.5565 463.927 41.5879 465.383 41.5879ZM483.475 31.5283L484.594 40.1598C484.671 40.7248 484.625 40.9602 484.502 41.0073C484.364 41.0543 484.272 41.1328 484.272 41.2113C484.272 41.3368 484.395 41.431 484.87 41.4467C485.668 41.4938 488.55 41.5722 489.056 41.5722C489.347 41.5722 489.577 41.5094 489.577 41.3368C489.577 41.2113 489.439 41.1485 489.255 41.1485C488.865 41.1486 488.476 41.085 488.105 40.9602C487.492 40.7719 487.308 40.2383 487.109 38.9828L485.269 26.679C485.208 26.2553 484.978 26.0513 484.809 26.0513C484.625 26.0513 484.441 26.2082 484.272 26.5378L478.845 37.743L473.448 26.679C473.172 26.1455 473.034 26.0513 472.819 26.0513C472.666 26.0513 472.482 26.2396 472.436 26.5692L470.443 39.5321C470.351 40.1912 470.167 40.9916 469.615 41.0543C469.293 41.1014 469.155 41.1014 468.986 41.1014C468.787 41.1014 468.664 41.1956 468.664 41.2897C468.664 41.4781 468.818 41.5251 469.032 41.5251C469.676 41.5251 470.642 41.4624 471.026 41.4624C471.394 41.4624 472.313 41.5251 473.172 41.5251C473.479 41.5251 473.647 41.4781 473.647 41.2897C473.647 41.1956 473.509 41.1014 473.325 41.1014C473.141 41.1014 472.957 41.07 472.62 41.0073C472.283 40.9445 472.007 40.8032 472.007 40.4109C472.007 40.0813 472.022 39.8145 472.068 39.4693L473.034 31.7481H473.095C473.77 33.1291 474.951 35.5616 475.119 35.9382C475.349 36.5032 476.959 39.5635 477.45 40.4737C477.772 41.0857 478.002 41.4938 478.247 41.4938C478.477 41.4938 478.6 41.3054 479.044 40.3638L483.383 31.5127H483.475V31.5283ZM506.335 41.1171C506.105 41.1171 505.875 41.0857 505.568 41.0543C505.2 40.9759 504.633 40.7248 503.851 38.9043C502.563 35.8598 499.19 27.7776 498.7 26.6633C498.5 26.2082 498.408 26.0199 498.102 26.0199C497.887 26.0199 497.734 26.2553 497.504 26.8203L492.214 39.3124C491.8 40.3324 491.448 40.9445 490.528 41.07C490.344 41.07 490.114 41.1014 489.93 41.1014C489.776 41.1014 489.7 41.1956 489.7 41.3054C489.7 41.4624 489.822 41.5095 490.068 41.5095C491.126 41.5095 492.214 41.4467 492.414 41.4467C493.058 41.4467 494.008 41.5095 494.667 41.5095C494.867 41.5095 494.989 41.4624 494.989 41.3054C494.989 41.1799 494.943 41.1014 494.683 41.1014H494.391C493.778 41.1014 493.594 40.8817 493.594 40.5364C493.594 40.301 493.686 39.8145 493.885 39.3124L494.974 36.6131C495.02 36.4875 495.035 36.4718 495.158 36.4718H499.911C500.003 36.4718 500.064 36.4875 500.11 36.6131L501.674 40.662C501.766 40.8974 501.628 41.0857 501.49 41.1171C501.291 41.1328 501.229 41.2113 501.229 41.3211C501.229 41.4624 501.459 41.4624 501.827 41.4781C503.529 41.5251 505.001 41.5251 505.706 41.5251C506.473 41.5251 506.58 41.4781 506.58 41.3211C506.611 41.1956 506.519 41.1171 506.335 41.1171ZM499.482 35.3733H495.572C495.511 35.3733 495.449 35.3262 495.511 35.232L497.458 30.2415C497.473 30.1787 497.504 30.0532 497.565 30.0532C497.611 30.0532 497.626 30.1787 497.657 30.2415L499.574 35.2477C499.604 35.3262 499.574 35.3733 499.482 35.3733ZM512.866 41.5408C513.142 41.5408 513.326 41.4938 513.326 41.3368C513.326 41.2113 513.219 41.1328 512.989 41.1328C512.667 41.1328 512.268 41.1014 511.931 40.9916C511.532 40.8503 511.287 40.3795 511.241 38.8259L511.011 30.6652H511.072C511.456 31.0105 513.602 33.443 515.81 35.6087C517.926 37.6959 520.456 40.1755 521.713 41.3682C521.912 41.5722 522.188 41.7919 522.541 41.7919C522.694 41.7919 522.863 41.6036 522.863 41.1485L523.093 28.5309C523.123 27.4009 523.277 27.0557 523.829 26.8831C524.089 26.8203 524.243 26.8203 524.442 26.8203C524.672 26.8203 524.794 26.7261 524.794 26.6163C524.794 26.4436 524.61 26.4279 524.334 26.4279C523.338 26.4279 522.587 26.475 522.357 26.475C521.912 26.475 520.839 26.4279 519.781 26.4279C519.49 26.4279 519.275 26.4436 519.275 26.6163C519.275 26.7418 519.336 26.8203 519.597 26.8203C519.873 26.8203 520.348 26.8203 520.655 26.9458C521.13 27.1342 521.329 27.4794 521.345 28.7035L521.559 37.6018H521.467C521.176 37.3193 518.478 34.4944 517.098 33.0977C514.154 30.1473 511.118 26.9772 510.873 26.7261C510.52 26.3652 510.245 26.067 509.999 26.067C509.8 26.067 509.647 26.3495 509.647 26.7418L509.463 38.6061C509.432 40.3481 509.371 40.8974 508.834 41.0229C508.558 41.0857 508.19 41.1171 507.914 41.1171C507.73 41.1171 507.592 41.2113 507.592 41.3211C507.592 41.5094 507.776 41.5251 508.052 41.5251C509.079 41.5251 510.045 41.4624 510.229 41.4624C510.612 41.4624 511.563 41.5408 512.866 41.5408ZM546.888 36.8171C546.888 34.5886 545.891 32.9565 543.116 30.8064L542.472 30.3199C540.556 28.8291 540.034 28.013 540.034 26.9301C540.034 25.5177 541.062 24.5133 542.763 24.5133C544.266 24.5133 544.925 25.2195 545.278 25.659C545.753 26.271 545.876 27.0086 545.876 27.2126C545.876 27.4951 545.952 27.6363 546.106 27.6363C546.29 27.6363 546.366 27.448 546.366 26.9301C546.366 25.094 546.458 24.4035 546.458 24.1053C546.458 23.9327 546.351 23.8699 546.136 23.8228C545.538 23.6659 544.573 23.4305 543.085 23.4305C539.896 23.4305 537.781 25.298 537.781 27.8718C537.781 29.7707 538.654 31.4342 541.184 33.443L542.242 34.2904C544.159 35.8284 544.496 36.9112 544.496 38.0569C544.496 39.2967 543.484 40.7405 541.414 40.7405C539.988 40.7405 538.639 40.097 538.133 38.3707C538.011 37.9627 537.919 37.4762 537.919 37.1623C537.919 36.974 537.888 36.77 537.689 36.77C537.505 36.77 537.428 37.0368 537.413 37.382C537.397 37.7587 537.305 39.1711 537.305 40.4737C537.305 40.9916 537.367 41.1014 537.735 41.274C538.731 41.7292 539.758 41.8861 541.092 41.8861C542.303 41.8861 543.607 41.6821 544.757 40.9131C546.382 39.7989 546.888 38.1824 546.888 36.8171ZM564.703 37.743C564.55 37.743 564.489 37.8372 564.443 38.1353C564.381 38.512 564.09 39.0769 563.753 39.485C562.956 40.3952 561.959 40.5364 560.165 40.5364C557.451 40.5364 553.864 38.2766 553.864 33.5214C553.864 31.5597 554.232 29.6451 555.734 28.3112C556.654 27.5108 557.773 27.1812 559.552 27.1812C561.407 27.1812 562.772 27.6834 563.461 28.3583C563.967 28.8761 564.228 29.5823 564.243 30.2258C564.243 30.4926 564.289 30.6495 564.443 30.6495C564.627 30.6495 564.703 30.4455 564.719 30.163C564.734 29.755 564.734 28.6564 564.78 27.9973C564.826 27.2911 564.872 27.0557 564.872 26.8988C564.872 26.7732 564.811 26.679 564.565 26.6633C563.967 26.6006 563.308 26.4593 562.542 26.3338C561.622 26.2082 560.87 26.1298 559.598 26.1298C556.593 26.1298 554.661 26.9301 553.189 28.2484C551.257 30.0061 550.813 32.3601 550.813 33.7411C550.813 35.6714 551.349 37.9313 553.342 39.6419C555.182 41.2113 557.528 41.8076 560.288 41.8076C561.591 41.8076 563.139 41.6821 563.937 41.3525C564.289 41.2113 564.381 41.1171 564.458 40.7562C564.673 40.0813 564.903 38.3394 564.903 38.1039C564.933 37.9313 564.841 37.743 564.703 37.743ZM585.57 41.5408C585.831 41.5408 585.984 41.4781 585.984 41.3368C585.984 41.2427 585.877 41.1328 585.662 41.1328C585.34 41.1328 584.895 41.1014 584.635 41.07C584.006 40.9759 583.899 40.5992 583.837 40.0343C583.745 39.1554 583.745 37.5861 583.745 35.7499V32.2189C583.745 29.19 583.745 28.625 583.791 27.9816C583.837 27.2754 584.006 26.9929 584.527 26.8988C584.788 26.8517 584.972 26.836 585.125 26.836C585.355 26.836 585.493 26.7732 585.493 26.632C585.493 26.4907 585.355 26.4436 585.064 26.4436C584.282 26.4436 582.948 26.4907 582.458 26.4907C581.936 26.4907 580.511 26.4436 579.422 26.4436C579.115 26.4436 578.977 26.4907 578.977 26.632C578.977 26.7732 579.085 26.836 579.33 26.836C579.606 26.836 579.943 26.8517 580.112 26.8988C580.756 27.0871 580.94 27.2911 580.986 27.9816C581.016 28.6093 581.032 29.3469 581.032 32.3758V32.7995C581.032 32.9251 580.97 32.9408 580.909 32.9408H573.274C573.197 32.9408 573.136 32.9094 573.136 32.7995V32.3758C573.136 29.3469 573.136 28.6093 573.182 27.9816C573.228 27.2754 573.381 26.9929 573.933 26.8988C574.163 26.8517 574.347 26.836 574.516 26.836C574.776 26.836 574.884 26.7732 574.884 26.632C574.884 26.4907 574.746 26.4436 574.47 26.4436C573.672 26.4436 572.262 26.4907 571.787 26.4907C571.235 26.4907 569.901 26.4436 568.812 26.4436C568.536 26.4436 568.383 26.4907 568.383 26.632C568.383 26.7732 568.521 26.836 568.72 26.836C569.027 26.836 569.364 26.8517 569.518 26.8988C570.161 27.0871 570.345 27.2911 570.391 27.9816C570.407 28.6093 570.407 29.1743 570.407 32.2189V35.7499C570.407 37.5861 570.407 39.1554 570.315 40.0029C570.238 40.5992 570.131 40.9759 569.717 41.07C569.533 41.1171 569.303 41.1328 569.012 41.1328C568.751 41.1328 568.69 41.2427 568.69 41.3368C568.69 41.4781 568.828 41.5408 569.073 41.5408C569.87 41.5408 571.219 41.4781 571.664 41.4781C572.247 41.4781 573.642 41.5408 574.96 41.5408C575.221 41.5408 575.374 41.4781 575.374 41.3368C575.374 41.2427 575.282 41.1328 575.052 41.1328C574.746 41.1328 574.286 41.1014 574.01 41.07C573.412 40.9759 573.305 40.5992 573.228 40.0343C573.136 39.1554 573.105 37.6331 573.105 35.797V34.2747C573.105 34.1806 573.167 34.1492 573.243 34.1492H580.878C580.924 34.1492 581.001 34.1963 581.001 34.2747V35.797C581.001 37.6331 581.001 39.1554 580.909 40.0029C580.848 40.5992 580.725 40.9759 580.311 41.07C580.127 41.1171 579.897 41.1328 579.575 41.1328C579.345 41.1328 579.253 41.2427 579.253 41.3368C579.253 41.4781 579.407 41.5408 579.698 41.5408C580.48 41.5408 581.906 41.4781 582.366 41.4781C582.918 41.4624 584.251 41.5408 585.57 41.5408ZM605.823 33.5999C605.823 29.0174 602.65 26.1141 597.544 26.1141C591.411 26.1141 589.05 30.5397 589.05 33.9452C589.05 37.5076 591.442 41.7919 597.33 41.7919C602.558 41.7919 605.823 38.1981 605.823 33.5999ZM598.173 40.7091C594.355 40.7091 592.055 37.4605 592.055 33.3488C592.055 28.4053 594.708 27.1812 596.946 27.1812C600.212 27.1812 602.803 29.9119 602.803 34.3375C602.818 40.0343 599.599 40.7091 598.173 40.7091ZM617.721 26.1298C611.588 26.1298 609.242 30.5553 609.242 33.9608C609.242 37.5233 611.634 41.8076 617.522 41.8076C622.75 41.8076 626.015 38.2138 626.015 33.6156C626.015 29.0174 622.826 26.1298 617.721 26.1298ZM618.334 40.7091C614.517 40.7091 612.217 37.4605 612.217 33.3488C612.217 28.4053 614.869 27.1812 617.123 27.1812C620.389 27.1812 622.995 29.9119 622.995 34.3375C622.98 40.0343 619.76 40.7091 618.334 40.7091ZM629.358 26.8046C629.618 26.8046 629.864 26.8203 630.032 26.8674C630.676 27.0557 630.86 27.2597 630.906 27.9502C630.937 28.578 630.937 29.1429 630.937 32.1875V35.7185C630.937 37.5547 630.937 39.124 630.845 39.9715C630.784 40.5678 630.661 40.9445 630.247 41.0386C630.063 41.0857 629.833 41.1014 629.542 41.1014C629.281 41.1014 629.22 41.2113 629.22 41.3054C629.22 41.4467 629.358 41.5095 629.603 41.5095C630.017 41.5095 630.523 41.4938 631.014 41.4624C631.489 41.4624 631.934 41.4467 632.164 41.4467C632.991 41.4467 633.835 41.4624 634.847 41.4938C635.859 41.5408 637.024 41.5565 638.48 41.5565C639.538 41.5565 639.63 41.4624 639.768 41.0229C639.921 40.4266 640.059 38.9514 640.059 38.716C640.059 38.4806 640.013 38.2609 639.876 38.2609C639.707 38.2609 639.661 38.3864 639.646 38.5748C639.6 38.9514 639.385 39.5164 639.14 39.7675C638.634 40.3167 637.852 40.3324 636.778 40.3324C635.215 40.3324 634.433 40.2069 634.095 39.9087C633.651 39.5321 633.651 38.2609 633.651 35.6871V32.1561C633.651 29.1272 633.651 28.5623 633.697 27.9188C633.743 27.2126 633.896 26.9301 634.463 26.836C634.693 26.7889 635.015 26.7732 635.245 26.7732C635.506 26.7732 635.613 26.7104 635.613 26.5692C635.613 26.4279 635.475 26.3809 635.169 26.3809C634.387 26.3809 632.731 26.4279 632.24 26.4279C631.688 26.4279 630.4 26.3809 629.465 26.3809C629.159 26.3809 629.021 26.4279 629.021 26.5692C629.021 26.7104 629.128 26.8046 629.358 26.8046ZM412.55 53.9858C406.417 53.9858 404.071 58.4114 404.071 61.8169C404.071 65.3793 406.463 69.6637 412.351 69.6637C417.563 69.6637 420.829 66.0699 420.829 61.4716C420.829 56.8734 417.655 53.9858 412.55 53.9858ZM413.178 68.5651C409.361 68.5651 407.061 65.3166 407.061 61.2049C407.061 56.2614 409.713 55.0373 411.952 55.0373C415.218 55.0373 417.809 57.768 417.809 62.1936C417.824 67.8903 414.604 68.5651 413.178 68.5651ZM433.984 54.0957C433.861 54.0957 433.769 54.1898 433.662 54.2212C433.447 54.2683 433.202 54.284 432.834 54.3154C432.359 54.3311 427.866 54.3154 427.084 54.3154C426.502 54.3154 425.229 54.2683 424.187 54.2683C423.865 54.2683 423.711 54.3154 423.711 54.4566C423.711 54.5979 423.865 54.6607 424.049 54.6607C424.355 54.6607 424.693 54.6763 424.846 54.7234C425.49 54.896 425.674 55.1158 425.72 55.8063C425.751 56.434 425.751 56.999 425.751 60.0435V63.5746C425.751 65.5049 425.751 66.9801 425.659 67.8275C425.582 68.4239 425.475 68.8005 425.061 68.8947C424.877 68.9418 424.647 68.9575 424.355 68.9575C424.125 68.9575 424.049 69.0673 424.049 69.1615C424.049 69.3184 424.187 69.3655 424.463 69.3655C425.229 69.3655 426.502 69.3027 427.038 69.3027C427.56 69.3027 428.986 69.3655 430.274 69.3655C430.565 69.3655 430.718 69.3027 430.718 69.1615C430.718 69.0673 430.626 68.9575 430.365 68.9575C430.09 68.9575 429.66 68.9261 429.369 68.8947C428.771 68.8005 428.633 68.4239 428.572 67.8275C428.48 66.9801 428.449 65.5677 428.449 63.6374V61.9895C428.449 61.8483 428.495 61.8326 428.587 61.8326C428.924 61.8326 431.316 61.8483 431.822 61.8954C432.435 61.9425 432.696 62.3505 432.788 62.6173C432.88 62.8527 432.926 63.0881 432.926 63.2293C432.926 63.3706 433.003 63.5118 433.11 63.5118C433.325 63.5118 433.34 63.2293 433.34 63.0567C433.34 62.9155 433.371 62.0052 433.417 61.5972C433.478 60.9695 433.57 60.4202 433.57 60.3103C433.57 60.2005 433.524 60.122 433.447 60.122C433.325 60.122 433.294 60.2162 433.171 60.326C432.987 60.5928 432.696 60.6556 432.328 60.6713C432.021 60.7027 431.745 60.7027 431.408 60.7027L428.587 60.7184C428.464 60.7184 428.449 60.6556 428.449 60.53V55.7121C428.449 55.4767 428.51 55.4296 428.633 55.4296L431.991 55.4924C432.757 55.5081 433.141 55.822 433.279 56.1045C433.417 56.3869 433.401 56.7008 433.401 56.8577C433.401 57.0931 433.509 57.1873 433.662 57.1873C433.8 57.1873 433.846 56.9519 433.861 56.795C433.892 56.5596 433.922 55.3826 433.953 55.1628C434.014 54.645 434.106 54.4096 434.106 54.2683C434.122 54.1898 434.06 54.0957 433.984 54.0957ZM453.287 51.6004C452.229 51.6004 450.895 51.6632 449.96 51.6632C449.316 51.6632 447.859 51.6004 446.648 51.6004C446.295 51.6004 446.142 51.6475 446.142 51.8201C446.142 51.9771 446.28 52.0241 446.541 52.0241C446.863 52.0241 447.246 52.0398 447.43 52.0869C448.181 52.2438 448.365 52.6205 448.411 53.4209C448.457 54.1741 448.457 54.8333 448.457 58.4114V62.5545C448.457 64.7202 448.457 66.5721 448.334 67.5607C448.242 68.2513 448.135 68.7692 447.66 68.8633C447.461 68.9104 447.185 68.9575 446.832 68.9575C446.556 68.9575 446.464 69.0203 446.464 69.1458C446.464 69.3184 446.617 69.3812 446.924 69.3812C447.844 69.3812 449.285 69.3184 449.822 69.3184C450.42 69.3184 451.861 69.3812 453.379 69.3812C453.639 69.3812 453.823 69.3184 453.823 69.1458C453.823 69.0359 453.701 68.9575 453.455 68.9575C453.103 68.9575 452.597 68.9104 452.275 68.8633C451.585 68.7692 451.447 68.2513 451.385 67.5921C451.263 66.5721 451.263 64.7202 451.263 62.5545V53.1384C451.263 52.8716 451.324 52.746 451.447 52.6833C451.646 52.6205 451.999 52.5891 452.336 52.5891C452.873 52.5891 453.808 52.7303 454.636 53.4993C455.924 54.6763 455.985 56.2457 455.985 57.0304C455.985 59.4315 454.191 60.9067 452.903 60.9067C452.428 60.9067 452.259 60.9695 452.259 61.1735C452.259 61.3461 452.413 61.3618 452.535 61.3775C452.643 61.4089 452.903 61.4089 453.011 61.4089C456.276 61.4089 458.668 59.0548 458.668 55.7121C458.668 54.4723 458.024 53.4052 457.518 52.903C457.196 52.5891 456.154 51.6004 453.287 51.6004ZM477.312 54.2683C476.53 54.2683 475.165 54.3154 474.951 54.3154C474.92 54.3154 473.571 54.2683 472.543 54.2683C472.267 54.2683 472.129 54.3154 472.129 54.4566C472.129 54.5979 472.237 54.6607 472.482 54.6607C472.712 54.6607 473.065 54.6763 473.218 54.7234C473.862 54.9117 474.015 55.1158 474.061 55.8063C474.092 56.434 474.107 56.999 474.107 60.0435V62.5702C474.107 64.6104 474.061 66.368 472.927 67.4352C472.129 68.2356 471.087 68.4867 470.213 68.4867C469.523 68.4867 468.557 68.4239 467.653 67.6863C466.656 66.8859 466.119 65.756 466.119 62.837V60.0278C466.119 56.999 466.119 56.434 466.165 55.7906C466.211 55.0844 466.365 54.8019 466.901 54.7077C467.162 54.6606 467.269 54.645 467.499 54.645C467.714 54.645 467.821 54.5822 467.821 54.4409C467.821 54.2997 467.683 54.2526 467.392 54.2526C466.656 54.2526 465.291 54.2997 464.786 54.2997C464.188 54.2997 462.838 54.2526 461.75 54.2526C461.443 54.2526 461.305 54.2997 461.305 54.4409C461.305 54.5822 461.428 54.645 461.658 54.645C461.934 54.645 462.271 54.6606 462.44 54.7077C463.084 54.8961 463.268 55.0844 463.314 55.7906C463.36 56.4183 463.344 56.9833 463.344 60.0278V62.9782C463.344 65.8815 464.142 67.3567 465.184 68.2826C466.656 69.6009 468.741 69.648 469.799 69.648C471.102 69.648 472.651 69.444 474.077 68.2042C475.778 66.7604 476.008 64.4063 476.008 62.1779V60.0278C476.008 56.999 476.039 56.434 476.054 55.7906C476.1 55.0844 476.238 54.8019 476.79 54.7077C477.051 54.6606 477.158 54.645 477.388 54.645C477.618 54.645 477.741 54.5822 477.741 54.4409C477.741 54.2997 477.588 54.2683 477.312 54.2683ZM488.581 60.7497C489.73 59.9965 490.85 58.7881 490.85 57.2501C490.85 56.1829 490.206 54.2526 486.541 54.2526C485.852 54.2526 484.518 54.2997 483.506 54.2997C483.122 54.2997 481.835 54.2526 480.777 54.2526C480.485 54.2526 480.317 54.2997 480.317 54.4409C480.317 54.5822 480.455 54.645 480.654 54.645C480.961 54.645 481.298 54.6606 481.451 54.7077C482.095 54.8961 482.279 55.1001 482.325 55.7906C482.341 56.4183 482.341 56.9833 482.341 60.0278V63.5589C482.341 65.395 482.341 66.9644 482.249 67.8118C482.172 68.4082 482.065 68.7848 481.651 68.879C481.467 68.9261 481.237 68.9418 480.945 68.9418C480.685 68.9418 480.623 69.0516 480.623 69.1458C480.623 69.287 480.761 69.3498 481.007 69.3498C481.421 69.3498 481.927 69.3341 482.417 69.3027C482.892 69.3027 483.337 69.287 483.567 69.287C483.889 69.287 484.594 69.3027 485.284 69.3341C485.974 69.3812 486.664 69.3969 486.894 69.3969C490.62 69.3969 492.276 67.1841 492.276 65.0341C492.306 62.7271 490.236 61.299 488.581 60.7497ZM484.993 55.5552C484.993 55.3512 485.039 55.2413 485.177 55.2256C485.392 55.1785 485.775 55.1785 486.051 55.1785C487.799 55.1785 488.581 56.8577 488.581 58.1917C488.581 59.1647 488.182 59.8866 487.661 60.3103C487.308 60.5928 486.741 60.6713 486.066 60.6713C485.606 60.6713 485.3 60.6399 485.131 60.6085C485.07 60.5771 484.993 60.5614 484.993 60.3888V55.5552ZM487.155 68.471C486.695 68.471 486.235 68.4553 485.714 68.2356C485.07 67.9845 484.993 67.5764 484.993 66.2582V61.7227C484.993 61.5972 485.039 61.5815 485.116 61.5815H485.99C486.771 61.5815 487.323 61.7855 487.737 62.0994C489.255 63.1509 489.654 64.7359 489.654 65.6461C489.638 67.8746 488.243 68.471 487.155 68.471ZM506.274 66.1483C506.12 66.1483 506.074 66.2739 506.044 66.4622C505.998 66.8388 505.783 67.4038 505.538 67.6549C505.032 68.2042 504.25 68.2199 503.177 68.2199C501.613 68.2199 500.831 68.0943 500.493 67.7962C500.049 67.4195 500.049 66.1483 500.049 63.5746V60.0435C500.049 57.0147 500.049 56.4497 500.095 55.8063C500.141 55.1001 500.294 54.8176 500.846 54.7234C501.076 54.6763 501.398 54.6607 501.628 54.6607C501.889 54.6607 501.996 54.5979 501.996 54.4566C501.996 54.3154 501.858 54.2683 501.567 54.2683C500.785 54.2683 499.129 54.3154 498.638 54.3154C498.086 54.3154 496.798 54.2683 495.863 54.2683C495.557 54.2683 495.419 54.3154 495.419 54.4566C495.419 54.5979 495.526 54.6607 495.771 54.6607C496.032 54.6607 496.277 54.6763 496.431 54.7234C497.074 54.9117 497.258 55.1158 497.304 55.8063C497.335 56.434 497.335 56.999 497.335 60.0435V63.5746C497.335 65.4107 497.335 66.9801 497.243 67.8275C497.166 68.4239 497.059 68.8005 496.645 68.8947C496.461 68.9418 496.231 68.9575 495.94 68.9575C495.679 68.9575 495.618 69.0673 495.618 69.1615C495.618 69.3027 495.756 69.3655 496.001 69.3655C496.415 69.3655 496.921 69.3498 497.412 69.3184C497.887 69.3184 498.332 69.3027 498.562 69.3027C499.39 69.3027 500.233 69.3184 501.245 69.3498C502.257 69.3969 503.422 69.4126 504.878 69.4126C505.936 69.4126 506.028 69.3184 506.166 68.879C506.32 68.2827 506.458 66.8075 506.458 66.5721C506.458 66.368 506.412 66.1483 506.274 66.1483ZM515.81 68.9732C515.503 68.9732 515.043 68.9418 514.767 68.9104C514.169 68.8162 514.032 68.5024 513.97 67.9688C513.878 67.1213 513.878 65.5206 513.878 63.5903V60.0592C513.878 57.0304 513.878 56.4654 513.924 55.822C513.97 55.1158 514.123 54.8333 514.675 54.7391C514.905 54.692 515.074 54.6763 515.273 54.6763C515.488 54.6763 515.595 54.6293 515.595 54.4409C515.595 54.3154 515.442 54.2683 515.181 54.2683C514.399 54.2683 513.096 54.3154 512.59 54.3154C512.008 54.3154 510.643 54.2683 509.877 54.2683C509.555 54.2683 509.401 54.3154 509.401 54.4409C509.401 54.6293 509.524 54.6763 509.723 54.6763C509.984 54.6763 510.229 54.692 510.459 54.7705C510.904 54.9117 511.103 55.1471 511.149 55.822C511.164 56.4497 511.164 57.0147 511.164 60.0592V63.5903C511.164 65.5206 511.164 67.1213 511.072 67.9531C510.996 68.5494 510.888 68.8162 510.475 68.9261C510.291 68.9732 510.061 68.9889 509.769 68.9889C509.509 68.9889 509.447 69.0987 509.447 69.1929C509.447 69.3341 509.585 69.3969 509.831 69.3969C510.628 69.3969 512.008 69.3341 512.468 69.3341C513.02 69.3341 514.399 69.3969 515.733 69.3969C515.963 69.3969 516.117 69.3341 516.117 69.1929C516.132 69.083 516.04 68.9732 515.81 68.9732ZM533.104 65.5991C532.951 65.5991 532.89 65.6932 532.844 65.9914C532.782 66.368 532.491 66.933 532.154 67.341C531.357 68.2513 530.36 68.3925 528.566 68.3925C525.852 68.3925 522.265 66.1326 522.265 61.3775C522.265 59.4158 522.633 57.5012 524.135 56.1672C525.055 55.3669 526.174 55.0373 527.953 55.0373C529.808 55.0373 531.173 55.5395 531.862 56.2143C532.368 56.7322 532.629 57.4384 532.644 58.0818C532.644 58.3486 532.69 58.5056 532.844 58.5056C533.028 58.5056 533.104 58.3016 533.12 58.0191C533.135 57.611 533.135 56.5125 533.181 55.8534C533.227 55.1471 533.273 54.9117 533.273 54.7548C533.273 54.6293 533.196 54.5351 532.966 54.5194C532.368 54.4566 531.709 54.3154 530.943 54.1898C530.023 54.0643 529.271 53.9858 527.999 53.9858C524.994 53.9858 523.062 54.7862 521.59 56.1045C519.658 57.8621 519.229 60.2162 519.229 61.5972C519.229 63.5275 519.75 65.7874 521.759 67.498C523.599 69.0673 525.944 69.6637 528.704 69.6637C530.007 69.6637 531.556 69.5381 532.353 69.2086C532.706 69.0673 532.798 68.9732 532.874 68.6122C533.089 67.9374 533.319 66.1954 533.319 65.96C533.334 65.7874 533.242 65.5991 533.104 65.5991ZM564.32 68.9732C563.967 68.9732 563.461 68.9261 563.139 68.879C562.45 68.7848 562.312 68.267 562.25 67.6078C562.143 66.5878 562.143 64.7359 562.143 62.5702V58.4271C562.143 54.849 562.143 54.1898 562.189 53.4365C562.235 52.6205 562.419 52.2125 563.047 52.1026C563.323 52.0555 563.523 52.0398 563.722 52.0398C563.998 52.0398 564.136 51.9927 564.136 51.8358C564.136 51.6632 563.983 51.6161 563.645 51.6161C562.756 51.6161 561.3 51.6789 560.748 51.6789C560.134 51.6789 558.678 51.6161 557.436 51.6161C557.114 51.6161 556.961 51.6632 556.961 51.8358C556.961 51.9927 557.099 52.0398 557.359 52.0398C557.681 52.0398 558.065 52.0555 558.249 52.1026C559 52.2595 559.184 52.6362 559.23 53.4365C559.276 54.1898 559.276 54.849 559.276 58.4271V58.9136C559.276 59.0392 559.215 59.0862 559.138 59.0862H550.353C550.291 59.0862 550.215 59.0392 550.215 58.9136V58.4271C550.215 54.849 550.215 54.1898 550.261 53.4365C550.307 52.6205 550.491 52.2125 551.119 52.1026C551.395 52.0555 551.595 52.0398 551.794 52.0398C552.07 52.0398 552.208 51.9927 552.208 51.8358C552.208 51.6632 552.039 51.6161 551.717 51.6161C550.828 51.6161 549.371 51.6789 548.819 51.6789C548.191 51.6789 546.75 51.6161 545.508 51.6161C545.186 51.6161 545.033 51.6632 545.033 51.8358C545.033 51.9927 545.171 52.0398 545.431 52.0398C545.753 52.0398 546.136 52.0555 546.32 52.1026C547.072 52.2595 547.256 52.6362 547.302 53.4365C547.348 54.1898 547.348 54.849 547.348 58.4271V62.5702C547.348 64.7359 547.348 66.5878 547.225 67.5764C547.133 68.267 547.026 68.7848 546.55 68.879C546.351 68.9261 546.075 68.9732 545.722 68.9732C545.447 68.9732 545.355 69.0359 545.355 69.1615C545.355 69.3341 545.508 69.3969 545.814 69.3969C546.734 69.3969 548.176 69.3341 548.712 69.3341C549.356 69.3341 550.797 69.3969 552.3 69.3969C552.576 69.3969 552.76 69.3341 552.76 69.1615C552.76 69.0516 552.637 68.9732 552.392 68.9732C552.039 68.9732 551.533 68.9261 551.211 68.879C550.521 68.7848 550.383 68.267 550.322 67.6078C550.215 66.5878 550.215 64.7359 550.215 62.5702V60.4986C550.215 60.3731 550.276 60.3574 550.353 60.3574H559.138C559.199 60.3574 559.276 60.4045 559.276 60.4986V62.5702C559.276 64.7359 559.276 66.5878 559.153 67.5764C559.061 68.267 558.954 68.7848 558.479 68.879C558.279 68.9261 558.003 68.9732 557.651 68.9732C557.375 68.9732 557.283 69.0359 557.283 69.1615C557.283 69.3341 557.436 69.3969 557.758 69.3969C558.647 69.3969 560.104 69.3341 560.64 69.3341C561.284 69.3341 562.726 69.3969 564.228 69.3969C564.504 69.3969 564.688 69.3341 564.688 69.1615C564.688 69.0516 564.565 68.9732 564.32 68.9732ZM578.364 66.2425C578.226 66.2425 578.18 66.3367 578.134 66.5564C577.996 67.3724 577.766 67.7961 577.26 68.0316C576.739 68.267 575.88 68.2983 575.359 68.2983C573.289 68.2983 572.676 68.0002 572.615 66.6348C572.599 66.0385 572.615 64.3436 572.615 63.6687V62.068C572.615 61.9425 572.645 61.864 572.737 61.864C573.243 61.864 575.543 61.9111 575.911 61.9581C576.678 62.0209 576.923 62.3348 577.03 62.7428C577.076 63.0096 577.076 63.2607 577.091 63.4647C577.091 63.5589 577.137 63.6374 577.275 63.6374C577.459 63.6374 577.49 63.3549 577.49 63.1822C577.49 63.041 577.536 62.2406 577.582 61.8326C577.689 60.8282 577.735 60.4987 577.735 60.3731C577.735 60.2476 577.659 60.1691 577.582 60.1691C577.49 60.1691 577.429 60.2946 577.26 60.4359C577.061 60.6242 576.785 60.7027 576.294 60.7341C575.834 60.7811 573.213 60.7811 572.753 60.7811C572.63 60.7811 572.615 60.687 572.615 60.5771V55.6336C572.615 55.5238 572.661 55.4453 572.753 55.4453C573.167 55.4453 575.574 55.4924 575.926 55.5395C576.938 55.6336 577.091 55.9161 577.26 56.2614C577.383 56.4968 577.398 56.8577 577.398 56.9833C577.398 57.1559 577.429 57.2501 577.551 57.2501C577.705 57.2501 577.751 57.0147 577.781 56.9205C577.827 56.6851 577.873 55.8063 577.904 55.6023C577.95 54.692 578.057 54.4566 578.057 54.2997C578.057 54.2055 578.027 54.1114 577.919 54.1114C577.827 54.1114 577.72 54.1898 577.597 54.2055C577.444 54.2212 577.122 54.2997 576.754 54.3311C576.356 54.3468 571.879 54.3311 571.235 54.3311C570.652 54.3311 569.38 54.284 568.322 54.284C568.03 54.284 567.862 54.3311 567.862 54.4723C567.862 54.6136 568 54.6763 568.199 54.6763C568.506 54.6763 568.843 54.692 568.996 54.7391C569.64 54.9274 569.824 55.1315 569.87 55.822C569.886 56.4497 569.886 57.0147 569.886 60.0592V63.5903C569.886 65.4264 569.886 66.9958 569.794 67.8432C569.717 68.4396 569.61 68.8162 569.196 68.9104C569.012 68.9575 568.782 68.9732 568.49 68.9732C568.23 68.9732 568.168 69.083 568.168 69.1772C568.168 69.3184 568.306 69.3812 568.552 69.3812C568.966 69.3812 569.472 69.3655 569.962 69.3341C570.437 69.3341 570.882 69.3184 571.112 69.3184C571.71 69.3184 572.461 69.3341 573.458 69.3655C574.454 69.4126 575.666 69.4283 577.183 69.4283C577.95 69.4283 578.134 69.4283 578.272 68.9104C578.395 68.5181 578.548 67.1527 578.548 66.6976C578.548 66.4936 578.533 66.2425 578.364 66.2425ZM596.348 68.9732C596.118 68.9732 595.888 68.9418 595.582 68.9104C595.214 68.8319 594.646 68.5808 593.865 66.7604C592.577 63.7158 589.204 55.6337 588.713 54.5194C588.514 54.0643 588.422 53.876 588.115 53.876C587.9 53.876 587.747 54.1114 587.517 54.6763L582.228 67.1684C581.814 68.1885 581.461 68.8005 580.541 68.9261C580.357 68.9261 580.127 68.9575 579.943 68.9575C579.79 68.9575 579.713 69.0516 579.713 69.1615C579.713 69.3184 579.836 69.3655 580.081 69.3655C581.139 69.3655 582.228 69.3027 582.427 69.3027C583.071 69.3027 584.021 69.3655 584.681 69.3655C584.88 69.3655 585.003 69.3184 585.003 69.1615C585.003 69.0359 584.957 68.9575 584.696 68.9575H584.405C583.792 68.9575 583.608 68.7378 583.608 68.3925C583.608 68.1571 583.7 67.6706 583.899 67.1684L584.987 64.4691C585.033 64.3436 585.049 64.3279 585.171 64.3279H589.924C590.016 64.3279 590.078 64.3436 590.124 64.4691L591.687 68.5181C591.779 68.7535 591.641 68.9418 591.503 68.9732C591.304 68.9889 591.243 69.0673 591.243 69.1772C591.243 69.3184 591.473 69.3184 591.841 69.3341C593.543 69.3812 595.014 69.3812 595.72 69.3812C596.486 69.3812 596.594 69.3341 596.594 69.1772C596.624 69.0516 596.532 68.9732 596.348 68.9732ZM589.495 63.2293H585.585C585.524 63.2293 585.463 63.1822 585.524 63.0881L587.471 58.0975C587.487 58.0348 587.517 57.9092 587.578 57.9092C587.624 57.9092 587.64 58.0348 587.67 58.0975L589.587 63.1038C589.618 63.1822 589.587 63.2293 589.495 63.2293ZM608.936 66.1483C608.782 66.1483 608.736 66.2739 608.706 66.4622C608.66 66.8388 608.445 67.4038 608.2 67.6549C607.694 68.2042 606.912 68.2199 605.839 68.2199C604.275 68.2199 603.493 68.0943 603.156 67.7962C602.711 67.4195 602.711 66.1483 602.711 63.5746V60.0435C602.711 57.0147 602.711 56.4497 602.757 55.8063C602.803 55.1001 602.956 54.8176 603.508 54.7234C603.738 54.6763 604.06 54.6607 604.29 54.6607C604.551 54.6607 604.658 54.5979 604.658 54.4566C604.658 54.3154 604.52 54.2683 604.229 54.2683C603.447 54.2683 601.791 54.3154 601.301 54.3154C600.749 54.3154 599.461 54.2683 598.525 54.2683C598.219 54.2683 598.081 54.3154 598.081 54.4566C598.081 54.5979 598.188 54.6607 598.433 54.6607C598.694 54.6607 598.939 54.6763 599.093 54.7234C599.737 54.9117 599.921 55.1158 599.967 55.8063C599.997 56.434 599.997 56.999 599.997 60.0435V63.5746C599.997 65.4107 599.997 66.9801 599.905 67.8275C599.829 68.4239 599.721 68.8005 599.307 68.8947C599.123 68.9418 598.893 68.9575 598.602 68.9575C598.341 68.9575 598.28 69.0673 598.28 69.1615C598.28 69.3027 598.418 69.3655 598.663 69.3655C599.077 69.3655 599.583 69.3498 600.074 69.3184C600.549 69.3184 600.994 69.3027 601.224 69.3027C602.052 69.3027 602.895 69.3184 603.907 69.3498C604.919 69.3969 606.084 69.4126 607.541 69.4126C608.598 69.4126 608.69 69.3184 608.828 68.879C608.982 68.2827 609.12 66.8075 609.12 66.5721C609.12 66.368 609.074 66.1483 608.936 66.1483ZM623.394 54.1271C623.332 54.1271 623.164 54.1741 622.842 54.2212C622.535 54.2683 622.106 54.3154 621.462 54.3154H613.259C612.6 54.3154 611.834 54.284 611.236 54.2212C610.73 54.1585 610.53 53.9858 610.362 53.9858C610.239 53.9858 610.178 54.0957 610.132 54.3625C610.086 54.5351 609.702 56.4497 609.702 56.7793C609.702 56.999 609.748 57.1088 609.886 57.1088C610.024 57.1088 610.07 57.0147 610.116 56.8577C610.162 56.7165 610.254 56.4497 610.454 56.1672C610.76 55.7121 611.236 55.5709 612.416 55.5552L615.421 55.4924V63.5903C615.421 65.4264 615.421 66.9958 615.329 67.8432C615.268 68.4396 615.145 68.8162 614.731 68.9104C614.563 68.9575 614.317 68.9732 614.026 68.9732C613.765 68.9732 613.704 69.083 613.704 69.1772C613.704 69.3184 613.842 69.3812 614.087 69.3812C614.9 69.3812 616.264 69.3184 616.724 69.3184C617.307 69.3184 618.656 69.3812 619.99 69.3812C620.22 69.3812 620.373 69.3184 620.373 69.1772C620.373 69.083 620.281 68.9732 620.051 68.9732C619.76 68.9732 619.3 68.9418 619.024 68.9104C618.426 68.8162 618.319 68.4396 618.242 67.8746C618.15 66.9958 618.12 65.4264 618.12 63.5903V55.4924L620.68 55.5395C622.489 55.5709 623.026 56.1829 623.072 56.7008L623.102 56.9048C623.118 57.2187 623.164 57.2972 623.332 57.2972C623.455 57.2972 623.501 57.1873 623.516 56.9676C623.516 56.4497 623.562 54.9745 623.562 54.5508C623.562 54.2369 623.532 54.1271 623.394 54.1271ZM643.678 68.9732C643.356 68.9732 642.911 68.9418 642.651 68.9104C642.022 68.8162 641.915 68.4396 641.838 67.8746C641.746 66.9958 641.746 65.4264 641.746 63.5903V60.0592C641.746 57.0304 641.746 56.4654 641.792 55.822C641.838 55.1158 641.991 54.8333 642.528 54.7391C642.789 54.692 642.973 54.6763 643.126 54.6763C643.356 54.6763 643.494 54.6136 643.494 54.4723C643.494 54.3311 643.356 54.284 643.049 54.284C642.267 54.284 640.933 54.3311 640.458 54.3311C639.922 54.3311 638.496 54.284 637.422 54.284C637.131 54.284 636.978 54.3311 636.978 54.4723C636.978 54.6136 637.1 54.6763 637.33 54.6763C637.606 54.6763 637.959 54.692 638.112 54.7391C638.756 54.9274 638.94 55.1315 638.986 55.822C639.002 56.4497 639.032 57.1873 639.032 60.2162V60.6399C639.032 60.7654 638.971 60.7811 638.925 60.7811H631.29C631.228 60.7811 631.152 60.7497 631.152 60.6399V60.2162C631.152 57.1873 631.152 56.4497 631.198 55.822C631.244 55.1158 631.397 54.8333 631.964 54.7391C632.194 54.692 632.378 54.6763 632.547 54.6763C632.808 54.6763 632.915 54.6136 632.915 54.4723C632.915 54.3311 632.777 54.284 632.501 54.284C631.688 54.284 630.293 54.3311 629.818 54.3311C629.266 54.3311 627.932 54.284 626.859 54.284C626.583 54.284 626.414 54.3311 626.414 54.4723C626.414 54.6136 626.552 54.6763 626.751 54.6763C627.058 54.6763 627.395 54.692 627.564 54.7391C628.208 54.9274 628.392 55.1315 628.438 55.822C628.469 56.4497 628.469 57.0147 628.469 60.0592V63.5903C628.469 65.4264 628.469 66.9958 628.377 67.8432C628.315 68.4396 628.193 68.8162 627.779 68.9104C627.595 68.9575 627.365 68.9732 627.073 68.9732C626.813 68.9732 626.751 69.083 626.751 69.1772C626.751 69.3184 626.889 69.3812 627.135 69.3812C627.932 69.3812 629.266 69.3184 629.741 69.3184C630.324 69.3184 631.719 69.3812 633.022 69.3812C633.283 69.3812 633.436 69.3184 633.436 69.1772C633.436 69.083 633.344 68.9732 633.114 68.9732C632.823 68.9732 632.348 68.9418 632.087 68.9104C631.489 68.8162 631.382 68.4396 631.305 67.8746C631.213 66.9958 631.182 65.4735 631.182 63.6374V62.1151C631.182 62.0209 631.244 61.9895 631.32 61.9895H638.956C639.002 61.9895 639.063 62.0366 639.063 62.1151V63.6374C639.063 65.4735 639.063 66.9958 638.971 67.8432C638.91 68.4396 638.787 68.8162 638.373 68.9104C638.189 68.9575 637.959 68.9732 637.637 68.9732C637.407 68.9732 637.315 69.083 637.315 69.1772C637.315 69.3184 637.484 69.3812 637.76 69.3812C638.542 69.3812 639.967 69.3184 640.427 69.3184C640.979 69.3184 642.313 69.3812 643.616 69.3812C643.877 69.3812 644.03 69.3184 644.03 69.1772C644 69.083 643.892 68.9732 643.678 68.9732ZM117.856 59.9651C117.457 59.9651 117.35 60.1691 117.212 60.9852C117.013 61.8954 116.369 63.3863 115.525 64.3436C113.532 66.6976 110.834 67.1998 106.403 67.1998C99.7337 67.1998 90.7032 61.1735 90.7032 49.0424C90.7032 44.0989 91.6538 39.2496 95.2874 35.8284C97.4799 33.7882 100.316 32.6583 104.655 32.6583C109.239 32.6583 113.118 34.0393 114.774 35.8284C116.016 37.1466 116.675 38.9357 116.721 40.5208C116.721 41.2427 116.829 41.6507 117.212 41.6507C117.657 41.6507 117.764 41.2427 117.81 40.4737C117.917 39.4536 117.856 36.6444 117.963 34.9652C118.055 33.1762 118.209 32.5641 118.209 32.1561C118.209 31.8579 118.009 31.5911 117.457 31.544C115.955 31.3871 114.36 30.932 112.474 30.6809C110.175 30.3827 108.335 30.1787 105.253 30.1787C97.8325 30.1787 93.095 32.2189 89.5073 35.5773C84.7238 40.0656 83.6659 46.092 83.6659 49.5602C83.6659 54.5037 84.9691 60.2162 89.8446 64.6104C94.3828 68.6436 100.117 70.1659 106.94 70.1659C110.129 70.1659 113.916 69.8206 115.909 68.9889C116.752 68.6279 116.967 68.3768 117.212 67.5137C117.718 65.7717 118.316 61.3461 118.316 60.7184C118.301 60.326 118.193 59.9651 117.856 59.9651ZM8.34037 69.4126H56.0532V65.395H8.34037V69.4126ZM353.445 68.6593C352.94 68.6593 352.326 68.6122 351.698 68.4867C350.824 68.2827 349.613 67.6706 348.018 63.8414C345.35 57.3599 338.681 39.9401 337.684 37.5861C337.27 36.6131 337.025 36.2207 336.642 36.2207C336.228 36.2207 335.967 36.6915 335.477 37.9313L325.005 64.7359C324.177 66.8702 323.38 68.314 321.463 68.5808C321.126 68.6279 320.543 68.675 320.175 68.675C319.838 68.675 319.669 68.7535 319.669 69.0202C319.669 69.3655 319.915 69.444 320.467 69.444C322.628 69.444 324.928 69.3184 325.388 69.3184C326.691 69.3184 328.47 69.444 329.804 69.444C330.264 69.444 330.509 69.3498 330.509 69.0202C330.509 68.7692 330.386 68.675 329.88 68.675H329.252C327.964 68.675 327.581 68.11 327.581 67.341C327.581 66.8232 327.795 65.8031 328.209 64.7359L330.463 58.6311C330.54 58.38 330.632 58.2859 330.831 58.2859H340.137C340.337 58.2859 340.475 58.3643 340.551 58.584L343.894 67.6392C344.108 68.1571 343.817 68.5337 343.51 68.6279C343.096 68.675 342.928 68.7535 342.928 69.0046C342.928 69.3027 343.418 69.3027 344.185 69.3498C347.527 69.444 350.563 69.444 352.066 69.444C353.614 69.444 353.982 69.3498 353.982 69.0202C353.982 68.7064 353.767 68.6593 353.445 68.6593ZM339.34 56.1515H331.674C331.506 56.1515 331.46 56.026 331.506 55.8534L335.339 45.3544C335.385 45.1817 335.461 44.9777 335.584 44.9777C335.707 44.9777 335.752 45.1974 335.798 45.3544L339.555 55.9004C339.601 56.026 339.555 56.1515 339.34 56.1515ZM37.7469 34.3689C37.1796 34.5572 36.5817 34.3846 36.0757 33.9608C35.6311 33.5842 35.1558 33.2546 34.6959 32.9879C35.4253 32.5458 36.0296 31.9167 36.449 31.1626C36.8685 30.4085 37.0886 29.5555 37.0876 28.6878C37.0876 26.1925 35.2938 24.121 32.9634 23.7443L34.7572 21.3746C34.8468 21.2524 34.8952 21.1037 34.8952 20.9509C34.8952 20.7981 34.8468 20.6494 34.7572 20.5272L32.5341 17.5768C32.4987 17.5228 32.4508 17.4787 32.3945 17.4485C32.3383 17.4184 32.2756 17.4031 32.2121 17.4042C32.0894 17.4042 31.9821 17.4512 31.8901 17.5768L29.667 20.5272C29.5774 20.6494 29.529 20.7981 29.529 20.9509C29.529 21.1037 29.5774 21.2524 29.667 21.3746L31.4608 23.7443C30.3095 23.9275 29.2604 24.5269 28.5037 25.4338C27.7471 26.3407 27.333 27.4952 27.3366 28.6878C27.3366 30.5083 28.3025 32.109 29.7437 32.9879C29.2837 33.2703 28.8084 33.5842 28.3638 33.9608C27.8425 34.3846 27.2599 34.5572 26.6926 34.3689C16.4969 31.0418 7.51245 27.8404 2.42227 32.9565C-3.67982 39.0926 3.41884 48.9953 5.65729 53.0756C7.22114 55.9475 8.34037 59.2746 8.34037 61.9111H56.0532C56.0532 59.2589 57.1724 55.9318 58.7362 53.0756C60.9747 48.9953 68.0887 39.0926 61.9713 32.9565C56.8657 27.8404 47.8966 31.0418 37.7469 34.3689ZM24.9295 58.537C23.0896 58.6625 21.5564 56.9205 20.9738 54.5351L22.4917 50.9099C22.6603 50.5175 22.553 50.1409 22.2924 49.8741L17.4935 44.9777C17.2175 44.6952 16.9722 44.6952 16.8496 44.9777L14.5651 49.8584C14.3965 50.2821 14.5804 50.6117 14.8257 50.8785L18.4134 54.5822C19.1647 57.5012 17.2329 58.5527 16.1443 58.5527C12.342 58.5527 9.30628 53.2639 6.20924 47.7869C3.1582 42.404 2.08496 38.4649 4.38475 35.4988C8.21771 30.5397 18.3061 34.463 26.1407 38.1196C26.064 39.2653 26.3247 40.5992 27.0299 42.1843C31.1542 51.6318 28.3638 58.3016 24.9295 58.537ZM58.1843 47.8026C55.0872 53.2796 52.0362 58.5683 48.2492 58.5683C47.1607 58.5683 45.2289 57.5169 45.9801 54.5979L49.5678 50.8942C49.8131 50.6117 49.9971 50.2821 49.8284 49.8741L47.5593 44.9777C47.4366 44.6952 47.176 44.6952 46.9154 44.9777L42.1165 49.8741C41.8558 50.1409 41.7485 50.5175 41.9172 50.9099L43.435 54.5351C42.8524 56.9205 41.3346 58.6782 39.4794 58.537C36.0451 58.3016 33.2547 51.6161 37.3943 42.2C38.0842 40.6149 38.3448 39.281 38.2835 38.1353C46.1181 34.4787 56.1911 30.5553 60.0394 35.5145C62.3086 38.4806 61.2353 42.4197 58.1843 47.8026ZM268.139 68.6593C267.602 68.6593 266.759 68.6122 265.548 68.2356C264.306 67.8589 263.877 66.6191 263.509 63.9198L259.706 37.5547C259.584 36.6601 259.338 36.2207 258.955 36.2207C258.587 36.2207 258.327 36.566 258.035 37.2408L246.69 61.6129L235.313 37.539C234.777 36.4247 234.516 36.205 234.194 36.205C233.857 36.205 233.612 36.5974 233.489 37.3193L229.365 65.1439C229.15 66.5877 228.828 68.267 227.647 68.5181C227.019 68.6436 226.728 68.6436 226.406 68.6436C225.992 68.6436 225.731 68.7221 225.731 68.9418C225.731 69.3341 226.068 69.4126 226.482 69.4126C227.816 69.4126 229.825 69.2713 230.607 69.2713C231.358 69.2713 233.228 69.4126 234.991 69.4126C235.62 69.4126 235.988 69.3184 235.988 68.9418C235.988 68.7221 235.697 68.6436 235.359 68.6436C234.945 68.6436 234.363 68.5965 233.612 68.4239C232.906 68.2513 232.354 67.8746 232.354 67.0586C232.354 66.3837 232.4 65.8188 232.477 65.0498L234.639 48.0694H234.807C236.264 51.2708 238.763 56.638 239.146 57.5483C239.652 58.741 242.949 65.2695 243.945 67.2312C244.62 68.5181 245.034 69.3655 245.402 69.3655C245.785 69.3655 245.984 68.9732 246.95 66.9801L256.042 47.5985H256.211L258.71 66.3837C258.878 67.5764 258.756 68.1257 258.495 68.2199C258.204 68.3454 258.035 68.471 258.035 68.6907C258.035 68.9418 258.281 69.0673 259.246 69.1615C260.918 69.287 266.667 69.4126 267.71 69.4126C268.292 69.4126 268.798 69.287 268.798 68.9418C268.814 68.7064 268.522 68.6593 268.139 68.6593ZM289.113 51.0354C291.413 49.1522 293.36 47.065 293.36 43.5653C293.36 41.3054 292.026 37.1623 284.483 37.1623C283.057 37.1623 281.432 37.2879 279.393 37.2879C278.565 37.2879 275.928 37.1623 273.72 37.1623C273.091 37.1623 272.8 37.2408 272.8 37.5547C272.8 37.8529 273.045 37.9313 273.505 37.9313C274.088 37.9313 274.793 37.9784 275.13 38.0569C276.51 38.355 276.847 39.0456 276.924 40.4894C277.001 41.8547 277.001 43.0474 277.001 49.5445V57.0618C277.001 60.9852 277.001 64.3593 276.786 66.1483C276.617 67.3881 276.403 68.3297 275.575 68.5024C275.192 68.5808 274.701 68.675 274.072 68.675C273.566 68.675 273.398 68.8005 273.398 69.0202C273.398 69.3184 273.689 69.444 274.226 69.444C275.897 69.444 278.519 69.3184 279.485 69.3184C280.742 69.3184 284.529 69.5695 285.525 69.5695C293.191 69.5695 296.656 64.8301 296.656 60.2632C296.702 55.257 292.532 52.2281 289.113 51.0354ZM282.014 39.7204C282.014 39.2496 282.091 39.0769 282.398 38.9985C282.812 38.92 283.195 38.92 283.777 38.92C287.365 38.92 288.99 42.6708 288.99 45.5427C288.99 47.6299 288.362 49.1679 287.273 50.0624C286.568 50.7059 285.648 50.8785 284.268 50.8785C283.317 50.8785 282.689 50.8314 282.306 50.753C282.137 50.7059 282.014 50.6274 282.014 50.2821V39.7204ZM286.522 67.6392C285.571 67.6392 284.605 67.5921 283.486 67.1213C282.152 66.5721 282.03 65.8345 282.03 63.0253V52.9187C282.03 52.699 282.106 52.6205 282.275 52.6205C282.904 52.6205 283.317 52.6205 284.069 52.6676C285.694 52.746 286.66 53.0442 287.534 53.6876C290.707 55.9475 291.581 59.5413 291.581 62.1779C291.566 66.6191 288.392 67.6392 286.522 67.6392ZM315.56 68.6593C314.932 68.6593 314.012 68.5651 313.429 68.4867C312.172 68.314 311.881 67.5451 311.758 66.3994C311.589 64.5633 311.589 61.1892 311.589 57.0461V49.5289C311.589 43.0474 311.589 41.839 311.666 40.4894C311.758 38.9985 312.08 38.2609 313.215 38.0569C313.721 37.9784 314.043 37.9313 314.472 37.9313C314.886 37.9313 315.131 37.8372 315.131 37.5076C315.131 37.2565 314.794 37.1623 314.257 37.1623C312.678 37.1623 310.21 37.2879 309.167 37.2879C307.956 37.2879 305.334 37.1623 303.74 37.1623C303.08 37.1623 302.743 37.2408 302.743 37.5076C302.743 37.8529 302.988 37.9313 303.418 37.9313C303.924 37.9313 304.46 37.9784 304.92 38.1039C305.84 38.3237 306.254 39.0456 306.346 40.4894C306.423 41.8547 306.423 43.0474 306.423 49.5289V57.0461C306.423 61.1892 306.423 64.5633 306.208 66.3523C306.085 67.5921 305.84 68.314 304.997 68.4867C304.629 68.5651 304.123 68.6593 303.494 68.6593C302.988 68.6593 302.82 68.7848 302.82 69.0046C302.82 69.3027 303.111 69.4283 303.648 69.4283C305.319 69.4283 307.94 69.3027 308.906 69.3027C310.026 69.3027 312.663 69.4283 315.407 69.4283C315.867 69.4283 316.204 69.3027 316.204 69.0046C316.235 68.7848 316.02 68.6593 315.56 68.6593ZM185.914 62.7742C185.577 62.7742 185.5 63.041 185.454 63.4177C185.377 64.2337 184.872 65.4264 184.366 65.9757C183.323 67.1213 181.698 67.1684 179.49 67.1684C176.24 67.1684 175.151 66.8702 174.446 66.2268C173.572 65.4578 173.572 62.5231 173.572 57.0461V49.5289C173.572 43.0474 173.572 41.839 173.664 40.4737C173.741 38.9828 174.078 38.2609 175.212 38.0412C175.718 37.9627 176.378 37.9156 176.838 37.9156C177.344 37.9156 177.589 37.8215 177.589 37.5233C177.589 37.2251 177.298 37.1309 176.715 37.1309C175.09 37.1309 172.039 37.2722 171.042 37.2722C169.923 37.2722 167.286 37.1309 165.323 37.1309C164.695 37.1309 164.403 37.2094 164.403 37.5233C164.403 37.8215 164.649 37.9156 165.109 37.9156C165.645 37.9156 166.151 37.9627 166.489 38.0412C167.868 38.3394 168.206 39.0299 168.282 40.4737C168.374 41.839 168.374 43.0317 168.374 49.5289V57.0461C168.374 60.9695 168.374 64.3436 168.16 66.1326C167.991 67.3724 167.792 68.314 166.949 68.4867C166.565 68.5651 166.075 68.6593 165.446 68.6593C164.94 68.6593 164.771 68.7848 164.771 69.0046C164.771 69.3027 165.063 69.4283 165.599 69.4283C167.271 69.4283 169.892 69.3027 170.858 69.3027C174.231 69.3027 176.991 69.5538 182.986 69.5538C185.148 69.5538 185.362 69.3341 185.607 68.4082C185.945 67.1684 186.236 63.9669 186.236 63.4961C186.251 62.9782 186.221 62.7742 185.914 62.7742ZM141.804 36.566C129.293 36.566 124.587 45.9978 124.587 53.2953C124.587 60.8439 129.416 70.0246 141.39 70.0246C151.985 70.0246 158.654 62.3034 158.654 52.5263C158.639 42.7492 152.184 36.566 141.804 36.566ZM143.138 67.8903C135.135 67.8903 130.336 60.8439 130.336 51.977C130.336 41.3525 135.794 38.6218 140.593 38.6218C147.431 38.6218 152.813 44.554 152.813 54.1114C152.813 66.4465 146.051 67.8903 143.138 67.8903ZM222.603 37.1623C220.978 37.1623 218.341 37.2879 217.85 37.2879C217.804 37.2879 215.183 37.1623 213.052 37.1623C212.469 37.1623 212.178 37.2408 212.178 37.5547C212.178 37.8529 212.423 37.9313 212.883 37.9313C213.343 37.9313 214.048 37.9784 214.385 38.0569C215.765 38.355 216.087 39.0456 216.179 40.4894C216.256 41.8547 216.256 43.0474 216.256 49.5289V54.8647C216.256 59.2589 216.133 63.1038 213.833 65.4421C212.162 67.1527 209.908 67.7491 208.084 67.7491C206.658 67.7491 204.742 67.5764 202.871 65.9914C200.832 64.2965 199.621 61.6757 199.621 55.4924V49.5132C199.621 43.0317 199.621 41.8233 199.697 40.4737C199.789 38.9828 200.111 38.2452 201.246 38.0412C201.752 37.9627 201.997 37.9156 202.457 37.9156C202.871 37.9156 203.116 37.8215 203.116 37.539C203.116 37.2408 202.825 37.1466 202.197 37.1466C200.694 37.1466 198.072 37.2722 197.076 37.2722C195.818 37.2722 193.197 37.1466 190.989 37.1466C190.36 37.1466 190.069 37.2251 190.069 37.539C190.069 37.8372 190.314 37.9156 190.774 37.9156C191.357 37.9156 192.078 37.9627 192.399 38.0412C193.779 38.3394 194.101 39.0299 194.193 40.4737C194.285 41.839 194.285 43.0317 194.285 49.5132V55.7435C194.285 61.9268 195.88 65.0969 197.996 67.0586C201.031 69.8834 205.033 70.0089 207.256 70.0089C209.97 70.0089 212.975 69.5381 215.934 66.933C219.43 63.8571 219.89 58.8194 219.89 54.08V49.5132C219.89 43.0317 219.89 41.8233 219.966 40.4737C220.058 38.9828 220.38 38.2452 221.515 38.0412C222.021 37.9627 222.266 37.9156 222.726 37.9156C223.232 37.9156 223.477 37.8215 223.477 37.539C223.477 37.2565 223.186 37.1623 222.603 37.1623Z" fill="var(--fill-0, #1D4F91)"/>
</g>
<defs>
<clipPath id="clip0_209_15">
<rect width="644" height="93" fill="white"/>
</clipPath>
</defs>
</svg>
